<svg width="75" height="64" viewBox="0 0 75 64" fill="none" xmlns="http://www.w3.org/2000/svg">
<g id="Group 10">
<g id="Group">
<path id="Vector" d="M3.19863 19.8773H16.2822H25.1538L26.0752 18.9619L26.1541 18.8835L28.2338 16.8696L26.7859 15.4049C26.707 15.3265 26.6543 15.2219 26.6543 15.1172C26.6543 15.0126 26.707 14.908 26.7859 14.8295C26.9439 14.6988 27.1808 14.6988 27.3388 14.8295L28.813 16.268L32.4722 12.711L30.998 11.1941C30.919 11.1156 30.8927 11.011 30.8927 10.9064C30.8927 10.8018 30.9453 10.6972 31.0243 10.6187C31.1559 10.4618 31.4192 10.4618 31.5771 10.6187L33.1303 12.1095L36.7895 8.57865L35.2363 7.00938C35.0784 6.85245 35.0784 6.59091 35.2363 6.43398C35.3943 6.30321 35.6312 6.30321 35.7891 6.43398L37.395 7.97709L38.9745 6.43398C39.0535 6.35552 39.1588 6.32937 39.2641 6.32937C39.3694 6.32937 39.4747 6.38168 39.5536 6.46014C39.7116 6.61707 39.7116 6.85245 39.5536 7.00938L38.0268 8.57865L41.686 12.1356L43.2392 10.6448C43.3971 10.4879 43.634 10.4879 43.8183 10.6448C43.9499 10.8018 43.9499 11.0372 43.8183 11.1941L42.3178 12.711L45.977 16.2419L47.4512 14.8034C47.6091 14.6726 47.8461 14.6726 48.004 14.8034C48.162 14.9603 48.162 15.2219 48.004 15.3526L46.5561 16.8173L48.7148 18.9096L49.6362 19.825H58.5077H71.5913C71.8283 19.825 72.0125 19.6681 72.0389 19.485C72.0389 19.302 71.8546 19.145 71.5913 19.145L57.6917 19.0143L39.2904 0.784632C38.2374 -0.261544 36.5262 -0.261544 35.4732 0.784632L17.072 19.0666L3.1723 19.1973C2.93537 19.1973 2.7511 19.3543 2.7511 19.5373C2.7511 19.7204 2.93537 19.8773 3.19863 19.8773Z" fill="white"/>
<path id="Vector_2" d="M7.5421 16.634H15.9661C16.1241 16.634 16.2557 16.4509 16.2557 16.2417C16.2557 16.0324 16.1241 15.8494 15.9661 15.8494L7.5421 15.954C7.35782 15.954 7.2262 16.1109 7.2262 16.294C7.2262 16.4771 7.35782 16.634 7.5421 16.634Z" fill="white"/>
<path id="Vector_3" d="M58.8236 16.634H67.2477C67.432 16.634 67.5636 16.4771 67.5636 16.294C67.5636 16.1109 67.432 15.954 67.2477 15.954L58.8236 15.8494C58.6657 15.8494 58.5341 16.0324 58.5341 16.2417C58.5341 16.4509 58.6657 16.634 58.8236 16.634Z" fill="white"/>
<path id="Vector_4" d="M33.8676 12.8157L37.3951 16.242L40.949 12.8419L37.3951 9.20642L33.8676 12.8157Z" fill="white"/>
<path id="Vector_5" d="M27.839 18.9362L26.9176 19.8777H31.1559L30.2346 18.9362L29.0499 17.7069L27.839 18.9362Z" fill="white"/>
<path id="Vector_6" d="M29.6556 17.0796L31.551 18.9105L32.5251 19.8782H33.6307L34.6574 18.8843L36.6318 16.975L33.2095 13.4703L29.6556 17.0796Z" fill="white"/>
<path id="Vector_7" d="M38.4744 18.8573L37.3951 17.7588L36.3421 18.8573L35.368 19.8773H39.4484L38.4744 18.8573Z" fill="white"/>
<path id="Vector_8" d="M38.1848 16.9741L40.1592 18.8834L41.1859 19.8773H42.2652L43.2392 18.9096L45.1347 17.0788L41.5808 13.4956L38.1848 16.9741Z" fill="white"/>
<path id="Vector_9" d="M47.8458 19.8776L46.9508 18.936L45.7398 17.7329L44.5552 18.936L43.6338 19.8776H47.8458Z" fill="white"/>
<path id="Vector_10" d="M71.5914 44.0704H58.5078H49.6362L48.7148 44.9858L48.6359 45.0643L46.5562 47.0782L47.9777 48.5428C48.0567 48.6213 48.1094 48.7259 48.083 48.8305C48.0567 48.9352 48.0304 49.0398 47.9514 49.1182C47.7934 49.249 47.5565 49.249 47.3986 49.1182L45.9244 47.6797L42.2652 51.2367L43.7394 52.7537C43.8184 52.8322 43.8447 52.9368 43.8447 53.0414C43.8447 53.146 43.792 53.2506 43.7131 53.3291C43.5551 53.486 43.3182 53.486 43.1602 53.3291L41.607 51.8383L38.0005 55.3691L39.5537 56.9384C39.7116 57.0953 39.7116 57.3569 39.5537 57.5138C39.3957 57.6707 39.1588 57.6446 39.0009 57.5138L37.395 55.9707L35.8155 57.5138C35.7365 57.5923 35.6312 57.6184 35.5259 57.6184C35.4206 57.6184 35.3153 57.5661 35.2364 57.4876C35.0784 57.3307 35.0784 57.0953 35.2364 56.9384L36.7632 55.3691L33.104 51.8121L31.5508 53.3029C31.3929 53.4599 31.156 53.4599 30.998 53.3029C30.8664 53.146 30.8664 52.9106 30.998 52.7537L32.4985 51.2367L28.8394 47.7059L27.3651 49.1444C27.2072 49.2752 26.9703 49.2752 26.8123 49.1444C26.6544 48.9875 26.6544 48.7259 26.8123 48.5951L28.2602 47.1305L26.1015 45.0381L25.1802 44.1227H16.2559H3.19867C2.96174 44.1227 2.77747 44.2797 2.77747 44.4628C2.77747 44.6458 2.96174 44.8028 3.19867 44.8028L17.0983 44.9335L35.4996 63.2155C36.5526 64.2616 38.2638 64.2616 39.3168 63.2155L57.718 44.9335L71.6177 44.8028C71.8546 44.8028 72.0389 44.6458 72.0652 44.4628C72.0389 44.2274 71.8283 44.0704 71.5914 44.0704Z" fill="white"/>
<path id="Vector_11" d="M67.2477 47.3137H58.8236C58.6657 47.3137 58.5341 47.4968 58.5341 47.706C58.5341 47.9153 58.6657 48.0984 58.8236 48.0984L67.2477 47.9937C67.432 47.9937 67.5636 47.8368 67.5636 47.6537C67.5636 47.4706 67.432 47.3137 67.2477 47.3137Z" fill="white"/>
<path id="Vector_12" d="M15.9661 47.3137H7.5421C7.35782 47.3137 7.2262 47.4706 7.2262 47.6537C7.2262 47.8368 7.35782 47.9937 7.5421 47.9937L15.9661 48.0984C16.1241 48.0984 16.2557 47.9153 16.2557 47.706C16.2557 47.4968 16.1241 47.3137 15.9661 47.3137Z" fill="white"/>
<path id="Vector_13" d="M40.9227 51.1317L37.3688 47.7054L33.8412 51.1055L37.3951 54.741L40.9227 51.1317Z" fill="white"/>
<path id="Vector_14" d="M46.9511 44.9858L47.8461 44.0704H43.6078L44.5555 45.012L45.7401 46.2413L46.9511 44.9858Z" fill="white"/>
<path id="Vector_15" d="M45.1345 46.869L43.2391 45.0381L42.2387 44.0704H41.1594L40.1327 45.0643L38.1583 46.9736L41.5543 50.4783L45.1345 46.869Z" fill="white"/>
<path id="Vector_16" d="M36.3157 45.0905L37.3687 46.1628L38.448 45.0905L39.4221 44.0704H35.3417L36.3157 45.0905Z" fill="white"/>
<path id="Vector_17" d="M36.6055 46.9736L34.6311 45.0643L33.6044 44.0704H32.5251L31.5247 45.0381L29.6556 46.8428L33.2095 50.4521L36.6055 46.9736Z" fill="white"/>
<path id="Vector_18" d="M29.0499 46.2151L30.2345 45.012L31.1559 44.0704H26.9438L27.8389 44.9858L29.0499 46.2151Z" fill="white"/>
<path id="Vector_19" d="M8.96398 33.5828H6.59472V35.0475C6.59472 35.0998 6.59472 35.1783 6.54207 35.2567C6.51574 35.3352 6.46309 35.3875 6.43677 35.4398C6.38412 35.4921 6.33147 35.5444 6.27882 35.5706C6.22617 35.5967 6.14719 35.6229 6.09454 35.6229H3.67263V28.5873H4.83093V26.5996H0.0924072V28.5873H1.25071V35.6229H0.0924072V37.6106H8.96398V33.5828Z" fill="white"/>
<path id="Vector_20" d="M18.7569 30.3654V26.6254H9.93799V28.8223H11.0963V35.6486H9.93799V37.6364H18.7569V33.6871H16.3613V35.6486H13.5182V33.0855H15.7295V30.9932H13.5182V28.8223H16.3613V30.3654H18.7569Z" fill="white"/>
<path id="Vector_21" d="M24.785 35.6486V37.6364H29.5235V35.6486H28.3389V28.5346H29.8658V29.9731H32.2877V26.6254H22.1788V29.9731H24.5744V28.5346H25.917V35.6486H24.785Z" fill="white"/>
<path id="Vector_22" d="M42.5022 35.6486H41.6861L38.7377 26.6254H35.8156L32.7882 35.6486H31.9722V37.6364H36.1842V35.6486H34.9996L35.4997 34.0794H38.8957L39.3959 35.6486H38.2902V37.6364H42.5022V35.6486ZM36.0789 32.1963L37.1845 28.6131L38.3165 32.1963H36.0789Z" fill="white"/>
<path id="Vector_23" d="M50.1891 37.5843C50.6893 37.4274 51.1631 37.192 51.5843 36.8781C52.0055 36.5904 52.3478 36.2243 52.6373 35.832C52.9269 35.4397 53.1638 34.995 53.2955 34.5242L50.9525 33.8704C50.8735 34.0796 50.7419 34.2889 50.584 34.4981C50.426 34.7073 50.2417 34.8904 50.0311 35.0212C49.8205 35.1781 49.5836 35.3089 49.3467 35.3873C49.0834 35.492 48.8202 35.5181 48.5306 35.5181C48.1094 35.5181 47.7145 35.4397 47.3723 35.2566C47.0301 35.0735 46.7142 34.8381 46.4772 34.5242C46.214 34.2104 46.0297 33.8442 45.8718 33.4258C45.7401 33.0073 45.6612 32.5627 45.6612 32.0919C45.6612 31.6211 45.7401 31.1765 45.8718 30.7842C46.0034 30.3657 46.214 29.9995 46.4772 29.6857C46.7405 29.3718 47.0301 29.1364 47.3986 28.9534C47.7409 28.7703 48.1357 28.6918 48.5306 28.6918C48.8202 28.6918 49.0834 28.718 49.3204 28.7964C49.5573 28.8749 49.8205 28.9795 50.0311 29.1364C50.2417 29.2934 50.505 29.5811 50.7682 29.9734H53.0322V27.5149H51.4C50.8999 27.0702 50.4523 26.7825 50.0575 26.6256C49.6363 26.4687 49.1361 26.4164 48.5306 26.4164C47.7935 26.4164 47.0827 26.5733 46.4246 26.861C45.7665 27.1487 45.2136 27.5672 44.7135 28.0903C44.2396 28.6134 43.8447 29.2149 43.5815 29.8949C43.2919 30.5749 43.1603 31.3334 43.1603 32.118C43.1603 32.6411 43.2129 33.1642 43.3446 33.635C43.4762 34.1319 43.6605 34.5766 43.8711 34.995C44.108 35.4135 44.3712 35.8058 44.7135 36.1458C45.0294 36.4858 45.3979 36.7997 45.7928 37.0351C46.1877 37.2705 46.6089 37.4797 47.0827 37.6105C47.5566 37.7412 48.0304 37.8197 48.5306 37.8197C49.1098 37.8459 49.6626 37.7412 50.1891 37.5843Z" fill="white"/>
<path id="Vector_24" d="M63.6936 28.0903C63.3777 27.7503 63.0091 27.4364 62.6142 27.201C62.2194 26.9395 61.7982 26.7564 61.3243 26.6256C60.8505 26.4948 60.3766 26.4164 59.8764 26.4164C59.3763 26.4164 58.9024 26.4948 58.4286 26.6256C57.9547 26.7564 57.5335 26.9656 57.1386 27.201C56.7437 27.4364 56.3752 27.7503 56.0593 28.0903C55.7434 28.4303 55.4538 28.8226 55.2169 29.2411C54.98 29.6595 54.822 30.1303 54.6904 30.6011C54.5588 31.098 54.5061 31.595 54.5061 32.118C54.5061 32.6411 54.5588 33.1381 54.6904 33.635C54.822 34.1319 55.0063 34.5766 55.2169 34.995C55.4538 35.4135 55.7171 35.8058 56.0593 36.1458C56.3752 36.4858 56.7437 36.7997 57.1386 37.0351C57.5335 37.2705 57.9547 37.4797 58.4286 37.6105C58.9024 37.7412 59.3763 37.8197 59.8764 37.8197C60.3766 37.8197 60.8505 37.7412 61.3243 37.6105C61.7982 37.4797 62.2194 37.2705 62.6142 37.0351C63.0091 36.7997 63.3777 36.4858 63.6936 36.1458C64.0095 35.8058 64.2991 35.4135 64.536 34.995C64.7729 34.5766 64.9572 34.1058 65.0625 33.635C65.1941 33.1381 65.2468 32.6411 65.2468 32.118C65.2468 31.595 65.1678 31.0719 65.0625 30.6011C64.9309 30.1042 64.7466 29.6595 64.536 29.2411C64.2991 28.8226 64.0095 28.4303 63.6936 28.0903ZM62.5616 33.4519C62.43 33.8704 62.2194 34.2366 61.9824 34.5504C61.7192 34.8643 61.4296 35.0996 61.0874 35.2827C60.7188 35.4658 60.3503 35.5443 59.9291 35.5443C59.5079 35.5443 59.113 35.4397 58.7708 35.2827C58.4285 35.0996 58.1126 34.8643 57.8757 34.5504C57.6125 34.2366 57.4282 33.8704 57.2702 33.4519C57.1123 33.0334 57.0596 32.5888 57.0596 32.1442C57.0596 31.6734 57.1386 31.2288 57.2702 30.8103C57.4019 30.3919 57.6125 30.0257 57.8757 29.7118C58.139 29.398 58.4285 29.1626 58.7708 28.9795C59.113 28.7964 59.5079 28.718 59.9291 28.718C60.3503 28.718 60.7452 28.8226 61.0874 28.9795C61.4296 29.1626 61.7455 29.398 61.9824 29.7118C62.2457 30.0257 62.43 30.3919 62.5879 30.8103C62.7195 31.2288 62.7985 31.6734 62.7985 32.1442C62.7459 32.5888 62.6932 33.0334 62.5616 33.4519Z" fill="white"/>
<path id="Vector_25" d="M74.6975 30.365V28.168H73.9604C73.8551 27.9326 73.6971 27.6973 73.4865 27.4619C73.2759 27.2265 73.0127 27.0434 72.7231 26.8603C72.4072 26.6772 72.065 26.5465 71.6964 26.4418C71.3015 26.3372 70.8803 26.2849 70.4328 26.2849C69.8537 26.2849 69.3272 26.3634 68.8533 26.4941C68.3795 26.6511 67.9582 26.8603 67.5897 27.148C67.2475 27.4357 66.9579 27.7757 66.7736 28.1942C66.5893 28.6127 66.484 29.0573 66.484 29.5804C66.484 30.025 66.563 30.4435 66.6946 30.7835C66.8263 31.1496 67.0105 31.4373 67.2475 31.6989C67.4844 31.9604 67.7476 32.1697 68.0372 32.3527C68.3268 32.5358 68.6427 32.6666 68.9586 32.745L70.6434 33.2943C70.8014 33.3466 70.9593 33.3989 71.1173 33.4512C71.2752 33.5035 71.4068 33.582 71.5385 33.6605C71.6701 33.7389 71.7754 33.8435 71.8544 33.9743C71.9333 34.1051 71.986 34.262 71.986 34.4451C71.986 34.8112 71.8807 35.0728 71.6438 35.282C71.4068 35.4913 71.0909 35.5697 70.6434 35.5697C70.3538 35.5697 70.1169 35.5436 69.88 35.4651C69.6694 35.3866 69.4851 35.282 69.3535 35.1513C69.2219 35.0205 69.1166 34.8636 69.0376 34.6805C68.9586 34.4974 68.9323 34.2882 68.9323 34.0789V33.6343H66.2734V35.8313H67.0369C67.1685 36.1451 67.3528 36.4328 67.5897 36.6682C67.8266 36.9036 68.0899 37.139 68.4058 37.3221C68.7217 37.5052 69.0639 37.6359 69.4325 37.7405C69.801 37.8452 70.2222 37.8713 70.6434 37.8713C71.2489 37.8713 71.8017 37.7929 72.3019 37.6098C72.8021 37.4267 73.2233 37.1913 73.5918 36.8774C73.9341 36.5636 74.2236 36.1974 74.4079 35.7528C74.6185 35.3082 74.6975 34.8374 74.6975 34.2882C74.6975 33.8958 74.6448 33.5297 74.5395 33.242C74.4342 32.9281 74.3026 32.6404 74.1183 32.405C73.9341 32.1697 73.7235 31.9604 73.4865 31.7773C73.2496 31.6204 72.9863 31.4896 72.6968 31.385L70.6961 30.7312C70.5118 30.6789 70.3538 30.6265 70.1696 30.5742C69.9853 30.5219 69.8273 30.4696 69.6694 30.365C69.5114 30.2865 69.4061 30.1819 69.3008 30.0511C69.1955 29.9204 69.1692 29.7373 69.1692 29.5281C69.1692 29.345 69.1955 29.2142 69.2745 29.0834C69.3535 28.9527 69.4325 28.848 69.5641 28.7696C69.6957 28.6911 69.8273 28.6388 69.9853 28.5865C70.1432 28.5603 70.3275 28.5342 70.5118 28.5342C70.7224 28.5342 70.9067 28.5603 71.0909 28.6388C71.2752 28.6911 71.4332 28.7957 71.5911 28.9004C71.7491 29.005 71.8544 29.1357 71.9597 29.2927C72.065 29.4496 72.1176 29.6065 72.1439 29.7634V30.4173H74.6975V30.365Z" fill="white"/>
</g>
</g>
</svg>
