<svg width="56" height="49" viewBox="0 0 56 49" fill="none" xmlns="http://www.w3.org/2000/svg">
<path id="Icon" d="M50.75 24.5C53.5938 24.5 56 26.9062 56 29.75V43.75C56 46.7031 53.5938 49 50.75 49H36.75C33.7969 49 31.5 46.7031 31.5 43.75V17.5C31.5 7.875 39.2656 0 49 0H49.875C51.2969 0 52.5 1.20312 52.5 2.625V7.875C52.5 9.40625 51.2969 10.5 49.875 10.5H49C45.0625 10.5 42 13.6719 42 17.5V24.5H50.75ZM19.25 24.5C22.0938 24.5 24.5 26.9062 24.5 29.75V43.75C24.5 46.7031 22.0938 49 19.25 49H5.25C2.29688 49 0 46.7031 0 43.75V17.5C0 7.875 7.76562 0 17.5 0H18.375C19.7969 0 21 1.20312 21 2.625V7.875C21 9.40625 19.7969 10.5 18.375 10.5H17.5C13.5625 10.5 10.5 13.6719 10.5 17.5V24.5H19.25Z" fill="#ED6F24"/>
</svg>
