<svg width="33" height="33" viewBox="0 0 33 33" fill="none" xmlns="http://www.w3.org/2000/svg">
<g id="ShoppingCart">
<path id="Vector" d="M23.4323 23.7815H9.15731L5.66981 4.60649C5.62901 4.37686 5.50922 4.16871 5.33118 4.01806C5.15313 3.86741 4.92803 3.78373 4.69481 3.78149H2.43231" stroke="white" stroke-width="2" stroke-linecap="round" stroke-linejoin="round"/>
<path id="Vector_2" d="M10.4323 28.7815C11.813 28.7815 12.9323 27.6622 12.9323 26.2815C12.9323 24.9008 11.813 23.7815 10.4323 23.7815C9.0516 23.7815 7.93231 24.9008 7.93231 26.2815C7.93231 27.6622 9.0516 28.7815 10.4323 28.7815Z" stroke="white" stroke-width="2" stroke-linecap="round" stroke-linejoin="round"/>
<path id="Vector_3" d="M23.4323 28.7815C24.813 28.7815 25.9323 27.6622 25.9323 26.2815C25.9323 24.9008 24.813 23.7815 23.4323 23.7815C22.0516 23.7815 20.9323 24.9008 20.9323 26.2815C20.9323 27.6622 22.0516 28.7815 23.4323 28.7815Z" stroke="white" stroke-width="2" stroke-linecap="round" stroke-linejoin="round"/>
<path id="Vector_4" d="M8.24481 18.7815H23.9448C24.4123 18.7829 24.8653 18.6195 25.2242 18.32C25.5831 18.0206 25.825 17.6041 25.9073 17.144L27.4323 8.78149H6.43231" stroke="white" stroke-width="2" stroke-linecap="round" stroke-linejoin="round"/>
</g>
</svg>
